<svg version="1.1" preserveAspectRatio="none" xmlns="http://www.w3.org/2000/svg" width="500" height="500" viewBox="0 0 500 500"><rect width="100%" height="100%" fill="#070707" fill-opacity="1"/><svg viewBox="323.0896 1186.2759 269.4682 291.7653" width="307.5516882919251" height="333" x="96.2242px" y="83.5px" xmlns="http://www.w3.org/2000/svg" xmlns:xlink="http://www.w3.org/1999/xlink" preserveAspectRatio="none"><defs></defs><style>.companyName {fill:#F7DC5F;fill-opacity:1;}.icon1 {fill:#F7DC5F;fill-opacity:1;}.icon2 {fill:#8C7848;fill-opacity:1;}.icon3 {fill:#534538;fill-opacity:1;}.icon3-str {stroke:#534538;stroke-opacity:1;}.text {fill:#F7DC5F;fill-opacity:1;}</style><g opacity="1" transform="rotate(0 363.2189 1449.2412)">
<svg width="189.2096" height="28.8" x="363.2189" y="1449.2412" version="1.1" preserveAspectRatio="none" viewBox="1.36 -28 235.95999999999998 35.92">
  <g transform="matrix(1 0 0 1 0 0)" class="text"><path id="id-6izo4zJp11" d="M18.20 0L18.20-3.20Q15.80 0.32 11.04 0.32L11.04 0.32Q6.72 0.32 4-2.68L4-2.68Q1.36-5.64 1.36-10L1.36-10Q1.36-14.36 4-17.32L4-17.32Q6.72-20.32 11.24-20.32Q15.76-20.32 18.20-16.76L18.20-16.76L18.20-20L21.20-20L21.20 0L18.20 0ZM11.44-2.40L11.44-2.40Q14.68-2.40 16.56-4.64L16.56-4.64Q18.36-6.76 18.36-10L18.36-10Q18.36-13.24 16.56-15.36L16.56-15.36Q14.68-17.60 11.44-17.60L11.44-17.60Q8.24-17.60 6.24-15.36L6.24-15.36Q4.36-13.24 4.36-10L4.36-10Q4.36-6.76 6.24-4.64L6.24-4.64Q8.24-2.40 11.44-2.40Z M33.40-20L33.40-16.80Q35.80-20.32 40.56-20.32L40.56-20.32Q44.88-20.32 47.56-17.32L47.56-17.32Q50.24-14.36 50.24-10L50.24-10Q50.24-5.64 47.56-2.68L47.56-2.68Q44.88 0.32 40.36 0.32Q35.84 0.32 33.40-3.24L33.40-3.24L33.40 7.92L30.40 7.92L30.40-20L33.40-20ZM40.16-17.60L40.16-17.60Q36.92-17.60 35.04-15.36L35.04-15.36Q33.24-13.24 33.24-10L33.24-10Q33.24-6.76 35.04-4.64L35.04-4.64Q36.92-2.40 40.16-2.40L40.16-2.40Q43.36-2.40 45.36-4.64L45.36-4.64Q47.24-6.76 47.24-10L47.24-10Q47.24-13.24 45.36-15.36L45.36-15.36Q43.36-17.60 40.16-17.60Z M61.16-20L61.16-16.80Q63.56-20.32 68.32-20.32L68.32-20.32Q72.64-20.32 75.32-17.32L75.32-17.32Q78-14.36 78-10L78-10Q78-5.64 75.32-2.68L75.32-2.68Q72.64 0.32 68.12 0.32Q63.60 0.32 61.16-3.24L61.16-3.24L61.16 7.92L58.16 7.92L58.16-20L61.16-20ZM67.92-17.60L67.92-17.60Q64.68-17.60 62.80-15.36L62.80-15.36Q61-13.24 61-10L61-10Q61-6.76 62.80-4.64L62.80-4.64Q64.68-2.40 67.92-2.40L67.92-2.40Q71.12-2.40 73.12-4.64L73.12-4.64Q75-6.76 75-10L75-10Q75-13.24 73.12-15.36L73.12-15.36Q71.12-17.60 67.92-17.60Z M88.92-28L88.92 0L85.92 0L85.92-28L88.92-28Z M98.12 0L98.12-20L101.12-20L101.12 0L98.12 0ZM98.00-27.28L101.24-27.28L101.24-23.36L98.00-23.36L98.00-27.28Z M119.56-2.40L119.56-2.40Q121.48-2.40 122.96-3.48Q124.44-4.56 125.12-6.28L125.12-6.28L128.36-6.28Q127.44-3.32 125.00-1.52L125.00-1.52Q122.44 0.32 118.92 0.32L118.92 0.32Q114.52 0.32 111.76-2.68L111.76-2.68Q109.08-5.60 109.08-10L109.08-10Q109.08-14.40 111.76-17.32L111.76-17.32Q114.52-20.32 118.92-20.32L118.92-20.32Q122.44-20.32 125.00-18.48L125.00-18.48Q127.44-16.68 128.36-13.72L128.36-13.72L125.12-13.72Q124.44-15.44 122.96-16.52Q121.48-17.60 119.56-17.60Q117.64-17.60 116.30-17Q114.96-16.40 114.04-15.36L114.04-15.36Q112.08-13.20 112.08-10L112.08-10Q112.08-6.80 114.04-4.64L114.04-4.64Q116.04-2.40 119.56-2.40Z M151.68 0L151.68-3.20Q149.28 0.32 144.52 0.32L144.52 0.32Q140.20 0.32 137.48-2.68L137.48-2.68Q134.84-5.64 134.84-10L134.84-10Q134.84-14.36 137.48-17.32L137.48-17.32Q140.20-20.32 144.72-20.32Q149.24-20.32 151.68-16.76L151.68-16.76L151.68-20L154.68-20L154.68 0L151.68 0ZM144.92-2.40L144.92-2.40Q148.16-2.40 150.04-4.64L150.04-4.64Q151.84-6.76 151.84-10L151.84-10Q151.84-13.24 150.04-15.36L150.04-15.36Q148.16-17.60 144.92-17.60L144.92-17.60Q141.72-17.60 139.72-15.36L139.72-15.36Q137.84-13.24 137.84-10L137.84-10Q137.84-6.76 139.72-4.64L139.72-4.64Q141.72-2.40 144.92-2.40Z M169.04 0L166.04 0L166.04-17.36L161.96-17.36L161.96-20L166.04-20L166.04-27.16L169.04-27.16L169.04-20L173.64-20L173.64-17.36L169.04-17.36L169.04 0Z M180.92 0L180.92-20L183.92-20L183.92 0L180.92 0ZM180.80-27.28L184.04-27.28L184.04-23.36L180.80-23.36L180.80-27.28Z M201.80-20.32L201.80-20.32Q206.28-20.32 209.08-17.32L209.08-17.32Q211.72-14.44 211.72-10L211.72-10Q211.72-5.56 209.08-2.68L209.08-2.68Q206.28 0.32 201.80 0.32L201.80 0.32Q197.32 0.32 194.52-2.68L194.52-2.68Q191.88-5.56 191.88-10L191.88-10Q191.88-14.44 194.52-17.32L194.52-17.32Q197.32-20.32 201.80-20.32ZM201.80-2.40L201.80-2.40Q205.04-2.40 206.92-4.64L206.92-4.64Q208.72-6.76 208.72-10L208.72-10Q208.72-13.24 206.92-15.36L206.92-15.36Q205.04-17.60 201.80-17.60L201.80-17.60Q198.56-17.60 196.68-15.36L196.68-15.36Q194.88-13.24 194.88-10L194.88-10Q194.88-6.76 196.68-4.64L196.68-4.64Q198.56-2.40 201.80-2.40Z M219.68-20L222.68-20L222.68-16.88Q223.76-18.32 225.32-19.32Q226.88-20.32 228.88-20.32Q230.88-20.32 232.32-19.76Q233.76-19.20 234.84-18.08L234.84-18.08Q237.32-15.64 237.32-11.64L237.32-11.64L237.32 0L234.32 0L234.32-11.56Q234.32-14.32 232.76-15.96Q231.20-17.60 228.72-17.60L228.72-17.60Q226.20-17.60 224.44-15.92L224.44-15.92Q222.68-14.20 222.68-11.52L222.68-11.52L222.68 0L219.68 0L219.68-20Z"/></g>
</svg>
</g><g opacity="1" transform="rotate(0 323.0896 1307.2412)">
<svg width="269.4682" height="120" x="323.0896" y="1307.2412" version="1.1" preserveAspectRatio="none" viewBox="1.44 -31.2 70.96000000000001 31.6">
  <g transform="matrix(1 0 0 1 0 0)" class="companyName"><path id="id-D6z1nYkh3" d="M15.72-1.60L15.72 0L1.44 0L1.44-1.60Q2.80-1.64 3.62-1.86Q4.44-2.08 4.88-2.68Q5.32-3.28 5.48-4.38Q5.64-5.48 5.64-7.36L5.64-7.36L5.64-23.44Q5.64-25.12 5.50-26.22Q5.36-27.32 4.96-27.96Q4.56-28.60 3.82-28.86Q3.08-29.12 1.84-29.20L1.84-29.20L1.84-30.80L15.32-30.80L15.32-29.20Q14.08-29.12 13.34-28.86Q12.60-28.60 12.20-27.96Q11.80-27.32 11.66-26.22Q11.52-25.12 11.52-23.44L11.52-23.44L11.52-7.36Q11.52-5.48 11.66-4.38Q11.80-3.28 12.26-2.68Q12.72-2.08 13.54-1.86Q14.36-1.64 15.72-1.60L15.72-1.60Z M21.92 0L21.32-10.20L22.88-10.20Q23.44-6.40 25.92-4.22Q28.40-2.04 32.04-2.04L32.04-2.04Q33.52-2.04 34.76-2.40Q36-2.76 36.88-3.42Q37.76-4.08 38.24-4.98Q38.72-5.88 38.72-7L38.72-7Q38.72-7.96 38.42-8.66Q38.12-9.36 37.28-10.02Q36.44-10.68 34.98-11.36Q33.52-12.04 31.20-12.92L31.20-12.92Q26.52-14.72 24.28-17.10Q22.04-19.48 22.04-22.72L22.04-22.72Q22.04-24.60 22.76-26.16Q23.48-27.72 24.78-28.84Q26.08-29.96 27.90-30.58Q29.72-31.20 31.92-31.20L31.92-31.20Q33.96-31.20 35.76-30.56Q37.56-29.92 39.32-28.64L39.32-28.64L40.04-30.64L41-30.64L41.44-22L39.88-22Q38.92-25.28 36.88-27.02Q34.84-28.76 32.16-28.76L32.16-28.76Q29.68-28.76 28.14-27.54Q26.60-26.32 26.60-24.40L26.60-24.40Q26.60-23.56 26.88-22.90Q27.16-22.24 27.92-21.64Q28.68-21.04 30-20.42Q31.32-19.80 33.40-19.04L33.40-19.04Q36.20-17.96 38.18-16.86Q40.16-15.76 41.42-14.50Q42.68-13.24 43.28-11.84Q43.88-10.44 43.88-8.76L43.88-8.76Q43.88-6.72 43-5.04Q42.12-3.36 40.54-2.16Q38.96-0.96 36.78-0.28Q34.60 0.40 31.96 0.40L31.96 0.40Q29.56 0.40 27.64-0.26Q25.72-0.92 23.68-2.40L23.68-2.40L22.88 0L21.92 0Z M50.44 0L49.84-10.20L51.40-10.20Q51.96-6.40 54.44-4.22Q56.92-2.04 60.56-2.04L60.56-2.04Q62.04-2.04 63.28-2.40Q64.52-2.76 65.40-3.42Q66.28-4.08 66.76-4.98Q67.24-5.88 67.24-7L67.24-7Q67.24-7.96 66.94-8.66Q66.64-9.36 65.80-10.02Q64.96-10.68 63.50-11.36Q62.04-12.04 59.72-12.92L59.72-12.92Q55.04-14.72 52.80-17.10Q50.56-19.48 50.56-22.72L50.56-22.72Q50.56-24.60 51.28-26.16Q52-27.72 53.30-28.84Q54.60-29.96 56.42-30.58Q58.24-31.20 60.44-31.20L60.44-31.20Q62.48-31.20 64.28-30.56Q66.08-29.92 67.84-28.64L67.84-28.64L68.56-30.64L69.52-30.64L69.96-22L68.40-22Q67.44-25.28 65.40-27.02Q63.36-28.76 60.68-28.76L60.68-28.76Q58.20-28.76 56.66-27.54Q55.12-26.32 55.12-24.40L55.12-24.40Q55.12-23.56 55.40-22.90Q55.68-22.24 56.44-21.64Q57.20-21.04 58.52-20.42Q59.84-19.80 61.92-19.04L61.92-19.04Q64.72-17.96 66.70-16.86Q68.68-15.76 69.94-14.50Q71.20-13.24 71.80-11.84Q72.40-10.44 72.40-8.76L72.40-8.76Q72.40-6.72 71.52-5.04Q70.64-3.36 69.06-2.16Q67.48-0.96 65.30-0.28Q63.12 0.40 60.48 0.40L60.48 0.40Q58.08 0.40 56.16-0.26Q54.24-0.92 52.20-2.40L52.20-2.40L51.40 0L50.44 0Z"/></g>
</svg>
</g><g opacity="1" transform="rotate(0 390.4567 1186.2759)">
<svg width="134.7341" height="90.9653" x="390.4567" y="1186.2759" version="1.1" preserveAspectRatio="none" viewBox="12.307998657226562 31.33300018310547 176.25799560546875 119.00000762939453">
  <g transform="matrix(1 0 0 1 0 0)"><g><path data-color="1" d="M148.416 62.205c-.791 25.847-21.94 46.571-47.979 46.571S53.248 88.052 52.458 62.205h-40.15c0 48.672 39.457 88.128 88.129 88.128s88.129-39.456 88.129-88.128h-40.15z" class="icon1"></path><path data-color="2" d="M99.994 34.331l1.213 1.698s33.576 57.045 33.871 57.955c11.793-10.22 14.41-31.779 14.41-31.779L99.994 34.331z" class="icon2"></path><path data-color="2" d="M64.91 93.984c.295-.91 33.871-57.955 33.871-57.955l1.213-1.698L50.5 62.205s2.617 21.559 14.41 31.779z" class="icon2"></path><path data-color="3" d="M99.994 31.333l24.262 42.516 32.025 56.558-56.287-45.869-56.287 43.875 32.025-54.564 24.262-42.516z" class="icon3"></path></g></g>
</svg>
</g></svg></svg>